<svg width="222" height="65" viewBox="0 0 222 65" fill="none" xmlns="http://www.w3.org/2000/svg">
<g clip-path="url(#clip0_101_128)">
<path d="M20.1877 24.9758V65H35.7125V24.9758C35.7125 19.4762 40.356 15.0016 46.0628 15.0016H59.6442V0.0402832H46.0628C45.7677 0.0402832 52.5847 0.0563001 44.0886 0.0563001C36.4142 0.0563001 20.1877 7.57486 20.1877 24.9758Z" fill="#FFB81C"/>
<path d="M18.1641 15.0011H0V0.0397949H31.3823C25.342 3.35529 20.6174 8.64984 18.1641 15.0011Z" fill="#FFB81C"/>
<path d="M118.01 24.3222C118.009 24.3031 118.008 24.2843 118.007 24.2656C118.001 24.0304 117.99 23.7956 117.976 23.562C117.974 23.5311 117.972 23.4999 117.97 23.4686C117.969 23.4569 117.968 23.4456 117.968 23.4342C117.955 23.2346 117.941 23.0354 117.923 22.8373C117.923 22.833 117.922 22.8291 117.921 22.8252V22.8229C117.889 22.46 117.85 22.099 117.801 21.7404C117.801 21.7388 117.801 21.7372 117.801 21.7361C117.793 21.681 117.784 21.6263 117.777 21.5712C117.776 21.5657 117.775 21.5607 117.774 21.5552C117.753 21.4036 117.731 21.252 117.706 21.1013C117.706 21.1001 117.706 21.0989 117.706 21.0977C117.698 21.0493 117.689 21.0012 117.681 20.9528C117.68 20.9505 117.68 20.9481 117.679 20.9458C117.652 20.7852 117.624 20.625 117.594 20.4657C117.594 20.4649 117.594 20.4641 117.594 20.4633C117.586 20.4219 117.577 20.3805 117.569 20.3387C117.568 20.3344 117.567 20.3297 117.566 20.3254C117.534 20.1625 117.502 20 117.466 19.8379C117.466 19.8363 117.465 19.8348 117.465 19.8332C117.46 19.8137 117.456 19.7941 117.451 19.7742C117.317 19.1667 117.16 18.5671 116.98 17.9764C116.98 17.9752 116.979 17.9741 116.979 17.9729C116.974 17.9557 116.968 17.9393 116.964 17.9221C116.963 17.9201 116.962 17.9186 116.962 17.9166C116.906 17.7334 116.847 17.5514 116.787 17.3701C116.787 17.3682 116.786 17.3662 116.785 17.3646C116.781 17.3521 116.776 17.3396 116.772 17.3271C116.771 17.326 116.771 17.3248 116.771 17.3232C116.708 17.1365 116.644 16.9509 116.576 16.7662C116.576 16.765 116.576 16.7638 116.575 16.7622C116.573 16.7568 116.571 16.7517 116.57 16.7466C116.427 16.3552 116.275 15.9684 116.113 15.5864C116.112 15.5844 116.112 15.5825 116.111 15.5805C116.111 15.5793 116.109 15.5778 116.109 15.5762C113.169 8.63856 107.076 3.25377 99.5551 1.08289C99.5457 1.08016 99.5368 1.07742 99.5275 1.07508C97.1865 0.402372 94.7089 0.0390625 92.1441 0.0390625H78.8817H66.4604V65H81.9852V15.0016H92.1437C97.8505 15.0016 102.494 19.4761 102.494 24.9758V65H118.018V24.9758C118.018 24.7578 118.016 24.5406 118.01 24.3242V24.3222Z" fill="#FFB81C"/>
<path d="M129.43 0.0397949H106.824C112.864 3.35529 117.589 8.64984 120.042 15.0011H129.43C135.137 15.0011 139.78 19.4757 139.78 24.9753V64.9999H155.305V24.9753C155.305 11.2258 143.698 0.0397949 129.43 0.0397949Z" fill="#FFB81C"/>
<path d="M188.394 50.0386C182.687 50.0386 178.044 45.5641 178.044 40.0644V0.0397949H162.52V40.0644C162.52 53.8143 174.127 64.9999 188.394 64.9999H222V50.0386H188.394Z" fill="#FFB81C"/>
<path d="M221.84 0H206.315V46.2981H221.84V0Z" fill="#FFB81C"/>
<path d="M188.394 50.0386C182.687 50.0386 178.044 45.5641 178.044 40.0644V0.0397949H162.52V40.0644C162.52 53.8143 174.127 64.9999 188.394 64.9999H222V50.0386H188.394Z" fill="#FFB81C"/>
</g>
<defs>
<clipPath id="clip0_101_128">
<rect width="222" height="65" fill="white"/>
</clipPath>
</defs>
</svg>
